<?xml version="1.0" encoding="UTF-8"?>
<svg viewBox="0 0 475 71" xmlns="http://www.w3.org/2000/svg">
<path d="m2.0368 55.6c1.5008 1.2864 3.2159 2.4656 5.4671 3.5375 2.144 1.072 4.5023 1.8224 7.0751 2.4656 3.0015 0.6432 5.6815 0.9648 8.2542 0.9648 3.2159 0 6.2175-0.4288 8.8974-1.3936 2.6799-0.8576 4.7167-2.144 6.3247-3.8591 1.6079-1.8224 2.3583-3.7519 2.3583-6.0031 0-2.7871-1.2864-5.0383-3.8591-6.7534-2.5727-1.7152-6.7534-3.0016-12.328-3.9664l-5.3599-0.9647c-6.2175-1.072-10.934-3.216-14.15-6.2175-3.1087-3.0015-4.7167-6.8607-4.7167-11.684 0-3.9664 1.072-7.3967 3.3231-10.505 2.144-3.1087 5.3599-5.4671 9.3262-7.1823 3.9663-1.7152 8.4686-2.5727 13.507-2.5727h1.608c6.3247 0.21439 12.113 1.608 17.473 4.1807l-0.3216 9.219c-6.003-3.5375-12.113-5.3599-18.545-5.3599-3.2159 0-6.003 0.42879-8.5758 1.3936-2.5727 0.8576-4.6095 2.2511-6.1102 3.8591-1.608 1.8224-2.3584 3.8591-2.3584 6.1103 0 2.7871 1.1792 5.0383 3.5375 6.7534 2.3584 1.7152 6.2175 3.0016 11.577 3.9663l4.7167 0.7504c6.9678 1.1792 12.113 3.216 15.544 6.2175s5.1455 6.8606 5.1455 11.684c0 3.9663-1.072 7.3967-3.3231 10.505-2.2512 3.1087-5.4671 5.4671-9.5406 7.1822-4.0735 1.7152-8.683 2.5728-13.828 2.5728h-1.3936c-3.5375-0.1072-7.075-0.6432-10.612-1.608-3.5376-0.9648-6.8607-2.2511-9.755-3.8591l0.6432-9.4334z" fill="#353238"/>
<path d="m219.54 61.71h37.841l-3.324 8.1471h-43.307v-67.427h45.987l-3.323 8.1471h-33.874v21.332h28.943l-3.323 8.147h-25.62v21.654z" fill="#353238"/>
<path d="m265.31 55.6c1.501 1.2864 3.216 2.4656 5.467 3.5375 2.144 1.072 4.503 1.8224 7.075 2.4656 3.002 0.6432 5.682 0.9648 8.255 0.9648 3.215 0 6.217-0.4288 8.897-1.3936 2.68-0.8576 4.717-2.144 6.325-3.8591 1.608-1.8224 2.358-3.7519 2.358-6.0031 0-2.7871-1.286-5.0383-3.859-6.7534-2.573-1.7152-6.754-3.0016-12.328-3.9664l-5.36-0.9647c-6.217-1.072-10.934-3.216-14.15-6.2175-3.109-3.0015-4.717-6.8607-4.717-11.684 0-3.9664 1.072-7.3967 3.324-10.505 2.144-3.1087 5.359-5.4671 9.326-7.1823 3.966-1.7152 8.468-2.5727 13.507-2.5727h1.608c6.324 0.21439 12.113 1.608 17.473 4.1807l-0.322 9.219c-6.003-3.5375-12.113-5.3599-18.545-5.3599-3.216 0-6.003 0.42879-8.576 1.3936-2.572 0.8576-4.609 2.2511-6.11 3.8591-1.608 1.8224-2.358 3.8591-2.358 6.1103 0 2.7871 1.179 5.0383 3.537 6.7534 2.359 1.7152 6.218 3.0016 11.578 3.9663l4.716 0.7504c6.968 1.1792 12.114 3.216 15.544 6.2175s5.145 6.8606 5.145 11.684c0 3.9663-1.072 7.3967-3.323 10.505s-5.467 5.4671-9.54 7.1822c-4.074 1.7152-8.683 2.5728-13.829 2.5728h-1.393c-3.538-0.1072-7.075-0.6432-10.613-1.608s-6.861-2.2511-9.755-3.8591l0.643-9.4334z" fill="#353238"/>
<path d="m324.92 5.967 8.683-3.3231v67.427h-8.683v-64.104z" fill="#353238"/>
<path d="m465.67 6.1815 8.79-3.3231v67.106h-8.362l-40.842-52.956v52.956h-8.79v-67.427h8.361l40.843 52.956v-49.311z" fill="#353238"/>
<path d="m395.88 17.973c-2.358-2.4656-5.038-4.2879-8.147-5.5743s-6.432-1.9296-9.862-1.9296c-4.717 0-9.005 1.072-12.864 3.3232-3.859 2.2511-6.968 5.3598-9.219 9.4333-2.251 3.9664-3.323 8.3615-3.323 13.293 0 4.8238 1.072 9.1117 3.109 13.078 2.036 3.8591 5.038 6.9678 8.79 9.219 3.859 2.2511 8.04 3.3231 12.542 3.3231 6.539 0 11.685-1.7152 15.651-5.1455 3.859-3.4303 6.217-8.2542 6.86-14.686h-26.049l3.967-4.2879c2.037-2.1439 4.824-3.4303 7.718-3.4303h23.476v1.3936c0 6.4318-1.286 12.113-3.859 17.259s-6.217 9.1118-10.934 12.113c-4.717 3.0016-10.398 4.5023-16.937 4.5023-6.003 0-11.47-1.3936-16.509-4.0735-5.038-2.7871-9.111-6.5391-12.113-11.363-3.109-5.0383-4.717-11.041-4.717-17.902 0-6.3247 1.501-12.113 4.395-17.259 2.895-5.1454 7.075-9.3262 12.435-12.22 5.36-3.0015 11.149-4.3951 17.581-4.3951 4.824 0 9.326 0.85756 13.507 2.4655 3.966 1.608 7.396 3.8591 10.398 6.7535l-5.896 6.1103z" fill="#353238"/>
<path d="m111.7 69.964-33.017-36.233 30.123-31.731h-6.325c-3.0016 0-5.896 1.2864-7.9327 3.4303l-26.585 28.622v-33.553l-8.683 3.3231v66.141h8.683v-25.084l4.8239-4.9311 23.905 26.478c2.0368 2.2511 4.8238 3.4303 7.8258 3.4303h7.182v0.1072z" fill="#353238"/>
<path d="m144.93 49.275v-38.591h19.939c6.539 0 11.792 1.6079 15.758 4.6094l5.896-6.4318c-1.179-0.85759-2.358-1.608-3.645-2.3584-5.038-2.6799-11.041-4.0735-18.009-4.0735h-28.729v61.853l5.253-5.7887c2.251-2.4655 3.537-5.7887 3.537-9.219z" fill="#0086A8"/>
<path d="m192.53 15.186-6.325 6.9678c1.823 3.7519 2.787 8.4686 2.787 13.936 0 8.2542-2.143 14.472-6.324 18.867s-10.184 6.6462-17.902 6.6462h-9.219c-3.323 0-6.539 1.3936-8.79 3.8591l-3.967 4.288h21.869c6.967 0 12.971-1.3936 18.116-4.1808 5.038-2.7871 8.79-6.6462 11.47-11.792 2.68-5.0383 3.966-11.041 3.966-17.795 0-6.8607-1.286-12.756-3.966-17.795-0.429-0.9648-1.072-2.0368-1.715-3.0015z" fill="#353238"/>
</svg>
